# xmcd CD database file
#
# Track frame offsets:
#	150
#	26175
#	49588
#	72903
#	86823
#	105700
#	131988
#	176528
#	217380
#
# Disc length: 3125 seconds
#
# Revision: 0
# Processed by: cddbd v1.5.2PL0 Copyright (c) Steve Scherf et al.
# Submitted via: CDex 1.51
#
DISCID=8b0c3309
DTITLE=Atoine Roney - Whirling
DYEAR=1996
DGENRE=Jazz
TTITLE0=Blues For Leslie
TTITLE1=Whirling
TTITLE2=Purpose
TTITLE3=Where
TTITLE4=Alterations
TTITLE5=Duo
TTITLE6=The Hymn(To Trane, Michael Smith and Other Prophets)
TTITLE7=Passageway
TTITLE8=Peacefully Speaking
EXTD=YEAR: 1996
EXTT0=
EXTT1=
EXTT2=
EXTT3=
EXTT4=
EXTT5=
EXTT6=
EXTT7=
EXTT8=
PLAYORDER=
